<svg version="1.1" xmlns="http://www.w3.org/2000/svg" xmlns:xlink="http://www.w3.org/1999/xlink" viewBox="0 0 226 226"><g fill="none" fill-rule="nonzero" stroke="none" stroke-width="1" stroke-linecap="butt" stroke-linejoin="miter" stroke-miterlimit="10" stroke-dasharray="" stroke-dashoffset="0" font-family="none" font-weight="none" font-size="none" text-anchor="none" style="mix-blend-mode: normal"><path d="M0,226v-226h226v226z" fill="none"></path><g><path d="M208.66421,23.08996c-5.04439,-8.34611 -15.89857,-11.02191 -24.2438,-5.97752l-71.20324,43.03358l-31.05293,-18.76859l-10.53019,-6.3642l-29.61924,-17.90167c-8.34523,-5.04439 -19.19941,-2.36859 -24.2438,5.97752c-1.7259,2.8559 -2.5478,6.00489 -2.5478,9.11592c0,5.97664 3.03688,11.80938 8.5262,15.12699l80.33594,48.55469c5.61557,3.39441 12.6507,3.39441 18.26539,0l80.33594,-48.55469c8.34523,-5.04263 11.02015,-15.89857 5.97752,-24.24203z" fill="#9b59b6"></path><path d="M209.79686,22.4049c-2.62284,-4.33902 -6.77823,-7.39709 -11.7008,-8.61095c-4.92168,-1.21298 -10.02345,-0.43787 -14.36248,2.18496l-70.5173,42.62042l-30.36875,-18.35455c-0.62415,-0.37784 -1.43987,-0.17833 -1.81859,0.44847c-0.37784,0.62591 -0.17745,1.43987 0.44847,1.81859l31.05381,18.76859c0.42287,0.25425 0.94814,0.25425 1.37101,0l71.20236,-43.03446c3.73341,-2.25647 8.11834,-2.92564 12.35761,-1.87951c4.23573,1.04437 7.81113,3.67603 10.06671,7.40945c2.25735,3.73253 2.92476,8.12187 1.88039,12.35673c-1.04525,4.23573 -3.67603,7.81113 -7.40945,10.06759l-80.33594,48.55469c-5.20948,3.14988 -11.68491,3.14899 -16.89527,0l-80.33594,-48.55469c-4.93845,-2.98479 -7.88705,-8.21634 -7.88705,-13.99346c0,-2.96448 0.81572,-5.88041 2.35799,-8.43086c2.25647,-3.7343 5.83098,-6.36596 10.06671,-7.40945c4.23573,-1.04525 8.62508,-0.37696 12.35761,1.87951l29.61924,17.90167c0.62591,0.37696 1.43987,0.17833 1.81948,-0.44847c0.37784,-0.62591 0.17745,-1.43987 -0.44847,-1.81859l-29.61836,-17.90255c-4.33902,-2.62284 -9.43815,-3.39883 -14.36159,-2.18496c-4.92256,1.21387 -9.07796,4.27193 -11.69991,8.61095c-1.79211,2.9636 -2.74025,6.3536 -2.74025,9.80098c0,6.71291 3.4262,12.79107 9.16536,16.25964l80.33505,48.55469c3.02893,1.83007 6.42334,2.74555 9.81864,2.74555c3.3953,0 6.78971,-0.91548 9.81776,-2.74555l80.33505,-48.55469c4.33991,-2.62195 7.39797,-6.77735 8.61095,-11.69991c1.21387,-4.92168 0.43788,-10.02169 -2.18408,-14.35983z" fill="#3a312a"></path><path d="M208.66421,79.58996c-5.04439,-8.34611 -15.89857,-11.02191 -24.2438,-5.97752l-71.20324,43.03446l-71.20236,-43.03534c-8.34523,-5.04439 -19.19941,-2.36859 -24.2438,5.97752c-1.7259,2.8559 -2.5478,6.00489 -2.5478,9.11592c0,5.97752 3.03688,11.80938 8.5262,15.12699l80.33594,48.55469c5.61557,3.39441 12.6507,3.39441 18.26539,0l80.33594,-48.55469c8.34523,-5.04263 11.02015,-15.89945 5.97752,-24.24203z" fill="#9b59b6"></path><path d="M209.79686,78.9049c-2.62284,-4.33902 -6.77823,-7.39709 -11.7008,-8.61095c-4.92168,-1.21298 -10.02345,-0.43787 -14.36248,2.18496l-70.5173,42.62042l-70.51641,-42.6213c-4.33902,-2.62284 -9.43815,-3.39795 -14.36159,-2.18496c-4.92256,1.21387 -9.07796,4.27193 -11.69991,8.61095c-1.79211,2.9636 -2.74025,6.3536 -2.74025,9.80098c0,6.71291 3.4262,12.79107 9.16536,16.25964l80.33505,48.55469c3.02893,1.83007 6.42334,2.74555 9.81864,2.74555c3.3953,0 6.78971,-0.91548 9.81776,-2.74555l80.33505,-48.55469c4.33902,-2.62195 7.39797,-6.77735 8.61095,-11.69991c1.21387,-4.92256 0.43788,-10.02257 -2.18408,-14.35983zM209.41019,92.63175c-1.04525,4.23573 -3.67603,7.81201 -7.40945,10.06759l-80.33594,48.55469c-5.20948,3.14988 -11.68491,3.14899 -16.89527,0l-80.33594,-48.55469c-4.93845,-2.98479 -7.88705,-8.21634 -7.88705,-13.99346c0,-2.96448 0.81572,-5.88041 2.35799,-8.43086c2.25647,-3.7343 5.83098,-6.36596 10.06671,-7.40945c1.30745,-0.32223 2.62725,-0.48113 3.93911,-0.48113c2.94153,0 5.83716,0.80071 8.4185,2.36152l71.20236,43.03446c0.42287,0.25425 0.94814,0.25425 1.37101,0l71.20236,-43.03446c3.73341,-2.25647 8.11834,-2.92564 12.35761,-1.87951c4.23573,1.04437 7.81113,3.67603 10.06759,7.40945c2.25735,3.73165 2.92476,8.11923 1.88039,12.35584z" fill="#3a312a"></path><path d="M208.66421,136.08996c-5.04439,-8.34611 -15.89857,-11.02191 -24.2438,-5.97752l-71.20324,43.03446l-71.20236,-43.03446c-8.34523,-5.04439 -19.19941,-2.36859 -24.2438,5.97752c-1.7259,2.8559 -2.5478,6.00489 -2.5478,9.11592c0,5.97664 3.03688,11.80938 8.5262,15.12699l80.33594,48.55469c5.61557,3.39441 12.6507,3.39441 18.26539,0l22.16124,-13.39403l10.54166,-6.37126l47.63303,-28.7894c8.34523,-5.04351 11.02015,-15.90034 5.97752,-24.24291z" fill="#9b59b6"></path><path d="M209.79686,135.4049c-2.62284,-4.33902 -6.77823,-7.39709 -11.7008,-8.61095c-4.92168,-1.21298 -10.02345,-0.43788 -14.36248,2.18496l-70.5173,42.62042l-70.5173,-42.62042c-4.33902,-2.62284 -9.43815,-3.39883 -14.36159,-2.18496c-4.92256,1.21387 -9.07796,4.27193 -11.69991,8.61095c-1.79211,2.9636 -2.74025,6.3536 -2.74025,9.80098c0,6.71291 3.4262,12.79107 9.16536,16.25964l80.33505,48.55469c3.02893,1.83007 6.42334,2.74555 9.81864,2.74555c3.3953,0 6.78971,-0.91548 9.81776,-2.74555l22.16036,-13.39403c0.6268,-0.37784 0.8272,-1.19268 0.44935,-1.81859c-0.37961,-0.6268 -1.19533,-0.82631 -1.81859,-0.44847l-22.16213,13.39403c-5.20948,3.14988 -11.68491,3.14899 -16.89527,0l-80.33594,-48.55469c-4.93845,-2.98479 -7.88705,-8.21634 -7.88705,-13.99346c0,-2.96448 0.81572,-5.88041 2.35799,-8.43086c2.25647,-3.7343 5.83098,-6.36596 10.06671,-7.40945c4.23573,-1.04525 8.62508,-0.37696 12.35761,1.87951l71.20236,43.03446c0.42287,0.25425 0.94814,0.25425 1.37101,0l71.20236,-43.03446c3.73341,-2.25647 8.11834,-2.92564 12.35761,-1.87951c4.23573,1.04437 7.81113,3.67603 10.06759,7.40945c2.25647,3.73253 2.92299,8.12099 1.87951,12.35673c-1.04525,4.23573 -3.67603,7.81201 -7.40945,10.06759l-47.63215,28.7894c-0.62591,0.37873 -0.82631,1.19268 -0.44847,1.81859c0.37961,0.62591 1.19268,0.82543 1.81948,0.44847l47.63127,-28.7894c4.33902,-2.62195 7.39797,-6.77735 8.61095,-11.69991c1.21563,-4.92345 0.43964,-10.02345 -2.18231,-14.36071z" fill="#3a312a"></path><path d="M42.0722,179.30275c-0.85986,10.20884 -11.49863,11.81998 -11.49863,11.81998c9.13446,0.42993 11.41035,12.41146 11.41035,12.41146c0.1951,-8.54298 11.75995,-12.5377 11.75995,-12.5377c-8.66304,-0.51821 -11.67166,-11.69373 -11.67166,-11.69373z" fill="#d7e057"></path><path d="M53.8242,189.67491c-7.59572,-0.45465 -10.44544,-10.61494 -10.4728,-10.71734c-0.16773,-0.62062 -0.75304,-1.02759 -1.39838,-0.97286c-0.64004,0.05827 -1.14589,0.56677 -1.19974,1.2068c-0.75834,9.01793 -9.98726,10.56109 -10.37658,10.622c-0.67359,0.10152 -1.15913,0.69742 -1.12382,1.37807c0.03531,0.67977 0.58001,1.22181 1.26066,1.25448c7.96915,0.3752 10.15058,11.22761 10.17088,11.33708c0.12183,0.62768 0.67094,1.07438 1.30038,1.07438c0.03708,0 0.07416,-0.00088 0.11123,-0.00441c0.67447,-0.0565 1.19798,-0.61179 1.21387,-1.28802c0.17127,-7.51097 10.76237,-11.2797 10.86919,-11.31677c0.59678,-0.20746 0.96403,-0.80689 0.87752,-1.4328c-0.0874,-0.62503 -0.60208,-1.10263 -1.23241,-1.14059zM41.84708,198.80849c-1.19709,-2.76409 -3.27347,-6.09847 -6.69702,-7.83673c2.58752,-1.23947 5.65706,-3.45445 7.23995,-7.30351c1.36924,2.71112 3.70781,6.07375 7.35736,7.69989c-2.65373,1.4487 -6.10995,3.89055 -7.90029,7.44034z" fill="#3a312a"></path><path d="M22.91693,194.29379c-0.60826,7.22052 -8.13247,8.36023 -8.13247,8.36023c6.46042,0.30369 8.07067,8.77869 8.07067,8.77869c0.13772,-6.04197 8.31786,-8.86785 8.31786,-8.86785c-6.12848,-0.36637 -8.25606,-8.27107 -8.25606,-8.27107z" fill="#d7e057"></path><path d="M31.25156,201.24241c-5.09118,-0.30457 -7.03778,-7.2267 -7.05632,-7.29645c-0.16773,-0.61973 -0.76187,-1.02848 -1.39661,-0.97286c-0.64092,0.05827 -1.14766,0.56677 -1.20151,1.20769c-0.51115,6.0658 -6.74998,7.12165 -7.0113,7.16314c-0.67359,0.10152 -1.15913,0.69742 -1.12382,1.37807c0.03531,0.67977 0.58001,1.22181 1.26066,1.25448c5.32777,0.25072 6.81884,7.63103 6.83209,7.70342c0.12006,0.62945 0.67005,1.07703 1.30038,1.07703c0.0362,0 0.07327,-0.00088 0.11035,-0.00441c0.67535,-0.05562 1.19886,-0.61267 1.21475,-1.28979c0.11477,-5.04086 7.35471,-7.6222 7.42622,-7.64692c0.59678,-0.20658 0.96491,-0.80601 0.87928,-1.43192c-0.0874,-0.62503 -0.60384,-1.10352 -1.23417,-1.14148zM22.7898,207.24112c-0.81572,-1.6641 -2.06578,-3.48446 -3.92587,-4.66125c1.63762,-0.91901 3.26376,-2.3218 4.30018,-4.34079c0.93313,1.65439 2.34298,3.49152 4.36198,4.61181c-1.63232,0.97286 -3.52154,2.41979 -4.73629,4.39023z" fill="#3a312a"></path><path d="M22.91693,170.75977c-0.60826,7.22052 -8.13247,8.36112 -8.13247,8.36112c6.46042,0.30369 8.07067,8.77869 8.07067,8.77869c0.13772,-6.04197 8.31786,-8.86785 8.31786,-8.86785c-6.12848,-0.36725 -8.25606,-8.27195 -8.25606,-8.27195z" fill="#d7e057"></path><path d="M31.25156,177.70927c-5.09118,-0.30457 -7.03778,-7.22582 -7.05632,-7.29645c-0.16773,-0.61973 -0.76187,-1.02759 -1.39661,-0.97286c-0.64092,0.05827 -1.14766,0.56677 -1.20151,1.20769c-0.51115,6.0658 -6.74998,7.12165 -7.0113,7.16314c-0.67359,0.10152 -1.15913,0.69742 -1.12382,1.37807c0.03531,0.67977 0.58001,1.22181 1.26066,1.25448c5.32777,0.25072 6.81884,7.63103 6.83209,7.70342c0.12006,0.62945 0.67005,1.07703 1.30038,1.07703c0.0362,0 0.07327,-0.00088 0.11035,-0.00441c0.67535,-0.05562 1.19886,-0.61267 1.21475,-1.28979c0.11477,-5.04086 7.35471,-7.6222 7.42622,-7.64692c0.59678,-0.20658 0.96491,-0.80601 0.87928,-1.43192c-0.0874,-0.62503 -0.60384,-1.10352 -1.23417,-1.14148zM22.7898,183.70798c-0.81572,-1.6641 -2.06578,-3.48446 -3.92587,-4.66125c1.63762,-0.91901 3.26376,-2.3218 4.30018,-4.34079c0.93313,1.65439 2.34298,3.49152 4.36198,4.61181c-1.63232,0.97286 -3.52154,2.41979 -4.73629,4.39023z" fill="#3a312a"></path><path d="M207.52803,23.77238c-2.25117,-3.7343 -5.82656,-6.36508 -10.06406,-7.4068c-3.56656,-0.88281 -7.23023,-0.54734 -10.53195,0.92695c3.0457,1.33305 5.59703,3.57539 7.35383,6.47984c2.26,3.7343 2.92211,8.12187 1.88039,12.35937c-1.04172,4.2375 -3.6725,7.81289 -7.4068,10.06406l-80.33594,48.55469c-0.59148,0.36195 -1.20945,0.67977 -1.82742,0.95344c4.84664,2.15406 10.4525,1.83625 15.06961,-0.95344l80.33594,-48.55469c3.7343,-2.25117 6.36508,-5.82656 7.4068,-10.06406c1.04172,-4.2375 0.37961,-8.62508 -1.88039,-12.35938z" fill="#695b51"></path><path d="M207.52803,80.27238c-2.25117,-3.7343 -5.82656,-6.36508 -10.06406,-7.4068c-3.56656,-0.88281 -7.23023,-0.54734 -10.53195,0.92695c3.0457,1.33305 5.59703,3.57539 7.35383,6.47984c2.26,3.7343 2.92211,8.12188 1.88039,12.35938c-1.04172,4.2375 -3.6725,7.81289 -7.4068,10.06406l-80.33594,48.55469c-0.59148,0.36195 -1.20945,0.67977 -1.82742,0.95344c4.84664,2.15406 10.4525,1.83625 15.06961,-0.95344l80.33594,-48.55469c3.7343,-2.25117 6.36508,-5.82656 7.4068,-10.06406c1.04172,-4.2375 0.37961,-8.62508 -1.88039,-12.35937z" fill="#695b51"></path><path d="M207.52803,136.77238c-2.25117,-3.7343 -5.82656,-6.36508 -10.06406,-7.4068c-3.56656,-0.88281 -7.23023,-0.54734 -10.53195,0.92695c3.0457,1.33305 5.59703,3.57539 7.35383,6.47984c2.26,3.7343 2.92211,8.12187 1.88039,12.35938c-1.04172,4.2375 -3.6725,7.81289 -7.4068,10.06406l-80.33594,48.55469c-0.59148,0.36195 -1.20945,0.67977 -1.82742,0.95344c4.84664,2.15406 10.4525,1.83625 15.06961,-0.95344l22.15859,-13.39227c0.6268,-0.37961 1.43898,-0.17656 1.81859,0.45023l8.28078,-5.00555c-0.37961,-0.61797 -0.18539,-1.43898 0.44141,-1.81859l47.63656,-28.78852c3.7343,-2.25117 6.36508,-5.82656 7.4068,-10.06406c1.04172,-4.2375 0.37961,-8.62508 -1.88039,-12.35937z" fill="#695b51"></path></g></g></svg>